<svg xmlns="http://www.w3.org/2000/svg" version="1.1" xmlns:xlink="http://www.w3.org/1999/xlink" xmlns:svgjs="http://svgjs.com/svgjs" width="1440" height="560" preserveAspectRatio="none" viewBox="0 0 1440 560"><g mask="url(&quot;#SvgjsMask1044&quot;)" fill="none"><rect width="1440" height="560" x="0" y="0" fill="rgba(142, 167, 232, 1)"></rect><path d="M1488 560L0 560 L0 350.96Q42.08 321.04, 72 363.12Q75 294.13, 144 297.13Q197.18 230.31, 264 283.49Q316.96 216.45, 384 269.41Q435.69 249.1, 456 300.78Q509.69 282.47, 528 336.16Q597.61 285.77, 648 355.38Q665 252.38, 768 269.38Q810.92 240.3, 840 283.22Q901.31 272.53, 912 333.84Q940.72 290.56, 984 319.28Q1007.86 271.14, 1056 295Q1086.8 253.79, 1128 284.59Q1200.58 237.17, 1248 309.75Q1336.52 278.27, 1368 366.8Q1410.62 289.42, 1488 332.04z" fill="rgba(255, 255, 255, 0.7)"></path><path d="M1464 560L0 560 L0 434.42Q31.18 345.6, 120 376.77Q147.44 332.2, 192 359.64Q249.01 344.65, 264 401.67Q318.8 384.47, 336 439.26Q347.49 378.75, 408 390.24Q426.3 336.54, 480 354.84Q547.46 302.3, 600 369.76Q621.41 319.17, 672 340.58Q753.25 301.83, 792 383.08Q862.46 333.54, 912 404.01Q986.88 358.89, 1032 433.78Q1071.59 353.37, 1152 392.95Q1205.56 326.51, 1272 380.07Q1356.24 344.31, 1392 428.54Q1395.1 359.64, 1464 362.74z" fill="rgba(255, 255, 255, 0.8)"></path><path d="M1488 560L0 560 L0 468.19Q16.13 412.32, 72 428.46Q139.76 376.22, 192 443.98Q285.44 417.43, 312 510.87Q323.28 450.15, 384 461.43Q426.83 384.26, 504 427.1Q572.56 375.66, 624 444.22Q692.12 440.34, 696 508.45Q714.43 454.88, 768 473.31Q839.3 424.61, 888 495.9Q928.65 416.55, 1008 457.2Q1030.98 408.19, 1080 431.17Q1109.1 388.26, 1152 417.36Q1200.02 393.38, 1224 441.41Q1286.95 432.37, 1296 495.32Q1338.64 465.97, 1368 508.61Q1396.1 416.71, 1488 444.81z" fill="rgba(255, 255, 255, 0.9)"></path><path d="M1488 560L0 560 L0 576.3Q37.67 493.97, 120 531.64Q190.52 482.16, 240 552.68Q294.48 535.16, 312 589.64Q322.78 480.42, 432 491.2Q473.26 460.46, 504 501.72Q587.99 465.71, 624 549.69Q694.39 500.09, 744 570.48Q744.59 499.07, 816 499.65Q870.88 434.52, 936 489.4Q990.25 471.65, 1008 525.9Q1061.43 459.33, 1128 512.75Q1179.06 443.81, 1248 494.87Q1336.23 463.1, 1368 551.33Q1406.78 470.11, 1488 508.89z" fill="rgba(255, 255, 255, 0.88)"></path></g><defs><mask id="SvgjsMask1044"><rect width="1440" height="560" fill="#ffffff"></rect></mask></defs></svg>